# xmcd
#
# Track frame offsets:
# 150
# 9007
# 34662
# 46512
# 56260
# 87385
# 101262
# 113482
# 132087
# 143262
# 153690
# 183607
# 199360
# 214065
# 243232
# 251485
# 261312
# 275117
#
# Disc length: 3804 seconds
#
#
# Revision: 2
# Processed by: cddbd v1.5.2PL0 Copyright (c) Steve Scherf et al.
# Submitted via: FreeRIP 2.70 
#
DISCID=ec0eda12
DTITLE=Andy Griffith - What it is, is Andy Griffith (Disk 1)
DYEAR=1955
DGENRE=Country
TTITLE0=The Fishin' Hole
TTITLE1=What It Was, Was Football
TTITLE2=Conversation With A Mule
TTITLE3=Love Poems: Togetherness
TTITLE4=Romeo and Juliet
TTITLE5=Silhouettes
TTITLE6=The Crawdad Song
TTITLE7=Swan Lake
TTITLE8=The Midnight Special
TTITLE9=Andy's Lament
TTITLE10=North Carolina, My Home State
TTITLE11=Police Department Blues
TTITLE12=My Dog Underdog
TTITLE13=Opera Carmen
TTITLE14=Flop-Eared Mule
TTITLE15=The Whistling Ping Pong Game
TTITLE16=How Long, How Long Blues
TTITLE17=The Preacher And The Bear
EXTD=
EXTT0=
EXTT1=
EXTT2=
EXTT3=
EXTT4=
EXTT5=
EXTT6=
EXTT7=
EXTT8=
EXTT9=
EXTT10=
EXTT11=
EXTT12=
EXTT13=
EXTT14=
EXTT15=
EXTT16=
EXTT17=
PLAYORDER=
